<?xml version="1.0" encoding="UTF-8"?>
<svg xmlns="http://www.w3.org/2000/svg" xmlns:xlink="http://www.w3.org/1999/xlink" width="500" zoomAndPan="magnify" viewBox="0 0 375 374.999991" height="500" preserveAspectRatio="xMidYMid meet" version="1.0">
  <path fill="#703def" d="M 152.292969 72.785156 C 153.445312 73.613281 154.496094 74.5 155.519531 75.480469 C 155.925781 75.863281 156.332031 76.242188 156.734375 76.625 C 157.136719 76.996094 157.542969 77.359375 157.957031 77.71875 C 160.128906 79.597656 162.167969 81.59375 164.183594 83.636719 C 165.144531 84.605469 166.113281 85.539062 167.148438 86.425781 C 167.613281 86.835938 168.019531 87.285156 168.425781 87.75 C 169.039062 88.449219 169.675781 89.128906 170.339844 89.78125 C 171.042969 90.476562 171.699219 91.199219 172.34375 91.949219 C 172.726562 92.378906 173.128906 92.785156 173.542969 93.191406 C 174.351562 93.988281 175.097656 94.824219 175.832031 95.691406 L 176.386719 96.332031 C 176.699219 96.699219 177.015625 97.066406 177.328125 97.433594 C 177.882812 98.082031 178.441406 98.726562 179 99.371094 C 181.332031 102.035156 183.554688 104.789062 185.734375 107.582031 C 186.070312 108.007812 186.40625 108.4375 186.746094 108.867188 C 188.042969 110.511719 189.308594 112.175781 190.496094 113.902344 C 190.980469 114.597656 191.472656 115.285156 191.988281 115.957031 C 193.742188 118.25 195.34375 120.628906 196.925781 123.046875 L 197.324219 123.652344 C 199.289062 126.636719 201.207031 129.644531 203.050781 132.707031 C 203.300781 133.113281 203.5625 133.515625 203.832031 133.90625 L 204.167969 134.417969 L 204.167969 134.835938 L 202.199219 134.988281 L 201.570312 135.039062 C 199.890625 135.167969 198.210938 135.300781 196.527344 135.433594 L 195.765625 135.496094 C 194.398438 135.601562 193.03125 135.707031 191.664062 135.808594 C 186.558594 136.179688 181.476562 136.695312 176.394531 137.296875 L 175.933594 137.347656 L 175.015625 137.457031 C 170.566406 137.984375 166.113281 138.488281 161.652344 138.949219 L 161.210938 138.992188 C 157.003906 139.425781 152.796875 139.808594 148.582031 140.132812 L 147.886719 140.183594 C 147.25 140.234375 146.609375 140.28125 145.972656 140.328125 C 145.789062 140.339844 145.605469 140.355469 145.414062 140.367188 L 144.894531 140.402344 L 144.449219 140.4375 C 143.800781 140.464844 143.152344 140.460938 142.5 140.457031 C 142.621094 137.988281 142.96875 135.574219 143.332031 133.132812 L 143.523438 131.835938 C 143.691406 130.683594 143.863281 129.535156 144.035156 128.382812 L 144.355469 126.21875 C 145.261719 120.097656 146.183594 113.976562 147.140625 107.867188 C 147.964844 102.609375 148.753906 97.347656 149.53125 92.085938 L 149.621094 91.488281 C 150.539062 85.257812 151.4375 79.027344 152.292969 72.785156 " fill-opacity="1" fill-rule="nonzero"></path>
  <path fill="#8755eb" d="M 371.875 202.507812 L 372.5 202.714844 L 372.054688 203.234375 C 371.019531 204.453125 369.996094 205.675781 369 206.925781 C 367.4375 208.886719 365.855469 210.828125 364.214844 212.722656 C 363.601562 213.433594 363 214.15625 362.40625 214.882812 C 361.445312 216.066406 360.445312 217.21875 359.441406 218.367188 C 358.785156 219.121094 358.132812 219.878906 357.484375 220.636719 L 357.175781 220.996094 L 356.558594 221.71875 C 356.246094 222.085938 355.929688 222.449219 355.617188 222.816406 C 354.414062 224.214844 353.214844 225.621094 352.023438 227.03125 C 351.636719 227.488281 351.25 227.945312 350.863281 228.402344 C 350.011719 229.402344 349.160156 230.40625 348.34375 231.4375 C 347.789062 232.136719 347.21875 232.824219 346.628906 233.496094 C 345.460938 234.839844 344.363281 236.21875 343.292969 237.640625 C 342.242188 239.023438 341.128906 240.339844 340 241.652344 L 339.480469 242.292969 C 336.53125 245.722656 331.714844 247.265625 327.613281 248.839844 C 325.402344 249.691406 323.214844 250.585938 321.027344 251.492188 L 320.472656 251.722656 C 317.230469 253.070312 314 254.449219 310.777344 255.835938 C 301.847656 259.675781 301.847656 259.675781 297.539062 261.394531 L 296.789062 261.695312 C 295.371094 262.257812 293.9375 262.796875 292.5 263.308594 C 291.070312 261.796875 289.671875 260.277344 288.371094 258.652344 C 287.890625 258.070312 287.386719 257.515625 286.875 256.957031 C 286.035156 256.042969 285.242188 255.101562 284.460938 254.136719 C 283.882812 253.433594 283.289062 252.742188 282.695312 252.050781 C 281.859375 251.082031 281.039062 250.101562 280.246094 249.09375 C 279.890625 248.652344 279.535156 248.210938 279.175781 247.773438 C 277.976562 246.316406 276.800781 244.847656 275.664062 243.34375 L 275.332031 242.914062 C 275.074219 242.570312 274.828125 242.214844 274.582031 241.863281 L 274.582031 241.445312 C 277.988281 239.8125 281.398438 238.316406 284.9375 236.996094 C 286.933594 236.242188 288.921875 235.464844 290.910156 234.691406 L 292.277344 234.160156 C 293.53125 233.675781 294.785156 233.1875 296.039062 232.699219 L 296.492188 232.523438 C 301.644531 230.523438 306.769531 228.457031 311.898438 226.402344 C 313.792969 225.644531 315.6875 224.886719 317.578125 224.132812 L 320.425781 222.992188 L 321.554688 222.542969 L 322.125 222.3125 L 333.425781 217.796875 L 336.148438 216.707031 C 337.386719 216.210938 338.625 215.71875 339.859375 215.222656 C 342.429688 214.191406 345.007812 213.167969 347.582031 212.152344 C 352.425781 210.25 357.257812 208.324219 362.058594 206.3125 C 364.414062 205.328125 366.773438 204.375 369.167969 203.496094 C 369.558594 203.351562 369.945312 203.199219 370.332031 203.050781 L 370.960938 202.808594 L 371.464844 202.609375 Z M 371.875 202.507812 " fill-opacity="1" fill-rule="nonzero"></path>
  <path fill="#703def" d="M 207.082031 141.082031 C 209.441406 142.070312 211.382812 143.914062 213.246094 145.625 C 213.777344 146.105469 214.324219 146.554688 214.882812 147.003906 C 215.878906 147.808594 216.820312 148.65625 217.761719 149.523438 C 218.3125 150.015625 218.875 150.484375 219.453125 150.945312 C 220.453125 151.75 221.386719 152.605469 222.324219 153.484375 C 223.207031 154.304688 224.125 155.066406 225.066406 155.820312 C 225.652344 156.304688 226.210938 156.808594 226.769531 157.324219 C 227.511719 158.007812 228.277344 158.667969 229.0625 159.300781 C 229.847656 159.9375 230.613281 160.59375 231.355469 161.28125 C 232.265625 162.117188 233.203125 162.902344 234.164062 163.679688 C 234.90625 164.289062 235.628906 164.917969 236.355469 165.546875 C 237.425781 166.484375 238.519531 167.402344 239.625 168.296875 C 240.679688 169.164062 241.710938 170.058594 242.746094 170.949219 C 243.128906 171.277344 243.511719 171.605469 243.898438 171.929688 C 245.226562 173.050781 246.503906 174.183594 247.707031 175.4375 C 247.984375 175.71875 248.261719 175.996094 248.542969 176.273438 C 244.359375 177.785156 240.160156 179.152344 235.859375 180.292969 L 235.230469 180.460938 L 233.945312 180.800781 L 233.289062 180.972656 L 232.632812 181.148438 C 230.105469 181.820312 227.589844 182.539062 225.078125 183.261719 L 223.632812 183.675781 L 220.601562 184.542969 C 217.996094 185.292969 215.390625 186.039062 212.785156 186.78125 C 211.855469 187.046875 210.925781 187.3125 209.996094 187.578125 L 207.375 188.328125 C 205.613281 188.832031 203.847656 189.332031 202.078125 189.828125 C 201.359375 190.027344 200.640625 190.230469 199.921875 190.429688 C 198.421875 190.851562 196.929688 191.285156 195.441406 191.746094 C 193.25 192.421875 191.046875 193.046875 188.839844 193.671875 C 185.605469 194.585938 182.382812 195.546875 179.167969 196.535156 C 167.621094 200.074219 167.621094 200.074219 165 200.007812 C 165.378906 199.167969 165.910156 198.433594 166.433594 197.679688 L 166.738281 197.238281 C 167.78125 195.734375 168.835938 194.242188 169.890625 192.75 C 170.3125 192.160156 170.730469 191.570312 171.144531 190.976562 L 172.085938 189.648438 C 172.5 189.0625 172.914062 188.476562 173.324219 187.886719 C 174.726562 185.898438 176.144531 183.917969 177.574219 181.949219 C 178.140625 181.167969 178.707031 180.386719 179.269531 179.601562 L 179.949219 178.667969 L 180.285156 178.199219 L 181.640625 176.324219 L 182.316406 175.386719 C 182.882812 174.601562 183.449219 173.820312 184.019531 173.039062 C 185.222656 171.375 186.417969 169.703125 187.601562 168.023438 C 188.355469 166.949219 189.125 165.882812 189.894531 164.820312 C 191.089844 163.171875 192.269531 161.511719 193.441406 159.847656 C 193.753906 159.402344 194.066406 158.957031 194.382812 158.515625 C 195.472656 156.976562 196.550781 155.429688 197.621094 153.875 C 198.894531 152.015625 200.183594 150.167969 201.472656 148.320312 C 201.730469 147.953125 201.984375 147.585938 202.242188 147.21875 C 205.453125 142.609375 205.453125 142.609375 207.082031 141.082031 " fill-opacity="1" fill-rule="nonzero"></path>
  <path fill="#5641eb" d="M 246.875 181.6875 L 247.292969 181.894531 L 246.9375 182.347656 C 245.882812 183.710938 244.847656 185.085938 243.828125 186.476562 C 242.769531 187.914062 241.699219 189.339844 240.613281 190.757812 C 239.589844 192.089844 238.582031 193.4375 237.605469 194.804688 C 236.488281 196.363281 235.335938 197.886719 234.167969 199.40625 C 233.253906 200.605469 232.347656 201.8125 231.457031 203.027344 C 230.292969 204.617188 229.105469 206.183594 227.90625 207.746094 C 226.996094 208.941406 226.097656 210.144531 225.207031 211.355469 C 224.042969 212.945312 222.855469 214.511719 221.65625 216.078125 C 220.746094 217.269531 219.847656 218.472656 218.957031 219.6875 C 217.792969 221.273438 216.605469 222.84375 215.40625 224.40625 C 214.496094 225.597656 213.597656 226.804688 212.707031 228.015625 C 211.140625 230.152344 209.53125 232.261719 207.917969 234.367188 C 207.71875 234.625 207.519531 234.882812 207.324219 235.140625 C 206.828125 235.785156 206.332031 236.429688 205.832031 237.074219 L 205.542969 237.449219 C 205.234375 237.847656 204.929688 238.242188 204.621094 238.632812 L 204.339844 238.996094 C 203.769531 239.726562 203.167969 240.386719 202.5 241.027344 C 201.105469 239.902344 199.730469 238.753906 198.375 237.582031 C 197.644531 236.953125 196.90625 236.335938 196.160156 235.730469 C 194.28125 234.207031 192.457031 232.617188 190.675781 230.980469 C 189.960938 230.324219 189.222656 229.691406 188.464844 229.082031 C 187.332031 228.167969 186.269531 227.191406 185.207031 226.199219 C 183.898438 224.980469 182.53125 223.832031 181.171875 222.667969 C 180.257812 221.886719 179.347656 221.101562 178.4375 220.3125 C 177.070312 219.125 175.695312 217.945312 174.320312 216.769531 L 173.230469 215.835938 L 172.863281 215.523438 L 172.136719 214.894531 C 171.53125 214.378906 170.925781 213.863281 170.320312 213.351562 C 167.746094 211.171875 165.277344 208.875 162.917969 206.464844 C 163.617188 205.996094 164.300781 205.792969 165.101562 205.558594 L 165.605469 205.410156 C 166.179688 205.238281 166.753906 205.070312 167.332031 204.902344 L 168.589844 204.53125 C 169.578125 204.238281 170.566406 203.949219 171.550781 203.65625 C 173.425781 203.105469 175.300781 202.550781 177.175781 201.996094 C 184.707031 199.769531 192.238281 197.546875 199.777344 195.347656 L 201.605469 194.8125 C 202.714844 194.488281 203.824219 194.164062 204.933594 193.839844 L 205.535156 193.664062 C 209.382812 192.542969 213.234375 191.425781 217.082031 190.308594 C 221.027344 189.167969 224.96875 188.019531 228.910156 186.871094 C 230.988281 186.265625 233.066406 185.660156 235.144531 185.050781 L 237.863281 184.257812 C 238.289062 184.132812 238.714844 184.007812 239.140625 183.882812 C 240.289062 183.546875 241.433594 183.214844 242.582031 182.882812 C 242.949219 182.777344 243.316406 182.671875 243.679688 182.566406 C 244.207031 182.410156 244.734375 182.261719 245.261719 182.109375 L 245.738281 181.96875 C 246.113281 181.863281 246.496094 181.773438 246.875 181.6875 " fill-opacity="1" fill-rule="nonzero"></path>
  <path fill="#703def" d="M 138.957031 147.953125 L 139.375 148.160156 C 139.570312 148.566406 139.570312 148.566406 139.773438 149.101562 L 140.003906 149.707031 L 140.246094 150.367188 L 140.5 151.046875 C 141.269531 153.152344 141.929688 155.285156 142.558594 157.4375 C 142.757812 158.105469 142.953125 158.773438 143.152344 159.441406 C 143.359375 160.136719 143.5625 160.832031 143.769531 161.527344 C 144.445312 163.8125 145.136719 166.09375 145.832031 168.371094 L 146.195312 169.554688 C 147.007812 172.226562 147.828125 174.898438 148.644531 177.570312 L 149.230469 179.484375 C 149.832031 181.445312 150.433594 183.402344 151.042969 185.359375 C 153.601562 193.578125 153.601562 193.578125 154.558594 197.40625 L 154.757812 198.203125 C 155.070312 199.5 155.304688 200.761719 155.417969 202.089844 C 153.175781 202.148438 150.980469 201.96875 148.75 201.757812 L 148.160156 201.703125 C 142.8125 201.207031 137.472656 200.625 132.136719 200.046875 C 129.445312 199.753906 126.753906 199.464844 124.0625 199.175781 L 122.683594 199.03125 C 115.984375 198.3125 109.28125 197.613281 102.578125 196.925781 L 101.785156 196.84375 L 95.285156 196.175781 L 94.667969 196.113281 C 94.292969 196.074219 93.921875 196.035156 93.546875 195.996094 C 92.433594 195.882812 91.320312 195.761719 90.210938 195.636719 L 90.210938 194.804688 C 90.566406 194.324219 90.566406 194.324219 91.054688 193.816406 L 91.582031 193.253906 C 91.746094 193.078125 91.914062 192.902344 92.085938 192.722656 C 92.300781 192.464844 92.519531 192.210938 92.734375 191.953125 C 94.308594 190.148438 96.042969 188.421875 97.871094 186.878906 C 98.566406 186.273438 99.238281 185.644531 99.910156 185.015625 L 100.304688 184.648438 C 100.941406 184.054688 101.570312 183.453125 102.179688 182.832031 C 102.679688 182.328125 103.199219 181.847656 103.738281 181.386719 C 104.621094 180.625 105.433594 179.808594 106.25 178.980469 C 107.207031 178.003906 108.179688 177.070312 109.214844 176.179688 C 109.671875 175.78125 110.097656 175.355469 110.519531 174.917969 C 111.089844 174.34375 111.664062 173.792969 112.28125 173.265625 C 112.941406 172.699219 113.554688 172.101562 114.167969 171.484375 C 114.765625 170.875 115.367188 170.289062 116.015625 169.738281 C 116.867188 169.011719 117.644531 168.226562 118.425781 167.425781 C 118.980469 166.859375 119.5625 166.320312 120.164062 165.800781 C 121.167969 164.933594 122.089844 163.996094 123.019531 163.050781 C 124.074219 161.980469 125.132812 160.9375 126.273438 159.960938 C 126.921875 159.390625 127.523438 158.773438 128.125 158.15625 C 129 157.269531 129.882812 156.414062 130.835938 155.609375 C 131.570312 154.957031 132.25 154.246094 132.9375 153.542969 C 133.519531 152.960938 134.136719 152.425781 134.761719 151.886719 C 135.550781 151.195312 136.308594 150.472656 137.070312 149.75 L 137.554688 149.292969 C 138.261719 148.628906 138.261719 148.628906 138.957031 147.953125 M 202.707031 139.417969 C 201.855469 141.039062 200.917969 142.582031 199.894531 144.101562 L 199.457031 144.757812 C 198.207031 146.609375 196.894531 148.40625 195.558594 150.191406 C 194.972656 150.976562 194.402344 151.765625 193.828125 152.558594 L 193.488281 153.027344 C 192.632812 154.21875 191.785156 155.414062 190.941406 156.617188 C 190.0625 157.863281 189.167969 159.101562 188.273438 160.339844 C 187.597656 161.269531 186.929688 162.203125 186.261719 163.140625 C 185.328125 164.453125 184.371094 165.75 183.414062 167.046875 C 182.582031 168.171875 181.753906 169.304688 180.9375 170.441406 C 180.007812 171.730469 179.070312 173.015625 178.125 174.292969 C 176.835938 176.039062 175.5625 177.792969 174.296875 179.554688 C 173.953125 180.027344 173.609375 180.5 173.269531 180.972656 C 172.015625 182.691406 170.785156 184.429688 169.582031 186.1875 C 162.542969 196.480469 162.542969 196.480469 159.792969 199.175781 C 157.65625 193.871094 156.027344 188.464844 154.503906 182.960938 C 152.164062 174.519531 149.609375 166.148438 147.007812 157.789062 C 145.984375 154.5 144.960938 151.210938 144.011719 147.902344 L 143.796875 147.167969 L 143.609375 146.503906 L 143.445312 145.933594 C 143.332031 145.453125 143.332031 145.453125 143.332031 144.832031 C 148.460938 144.1875 153.597656 143.648438 158.742188 143.183594 L 159.171875 143.144531 C 161.089844 142.972656 163.007812 142.800781 164.925781 142.632812 C 167.863281 142.371094 170.804688 142.109375 173.742188 141.84375 C 178.542969 141.410156 183.339844 140.949219 188.132812 140.457031 C 198.949219 139.347656 198.949219 139.347656 202.707031 139.417969 M 266.882812 136.671875 C 268.34375 136.671875 269.804688 136.667969 271.261719 136.664062 C 272.707031 136.664062 274.148438 136.660156 275.589844 136.660156 C 276.4375 136.664062 277.285156 136.660156 278.132812 136.660156 C 282.660156 136.648438 287.152344 136.808594 291.664062 137.125 C 291.285156 137.769531 290.933594 138.328125 290.402344 138.855469 L 290.027344 139.230469 L 289.625 139.628906 L 289.207031 140.050781 C 288.914062 140.339844 288.621094 140.632812 288.324219 140.921875 C 287.882812 141.363281 287.4375 141.808594 286.992188 142.25 L 286.136719 143.105469 L 285.738281 143.5 C 285.125 144.109375 284.5 144.699219 283.839844 145.261719 C 282.46875 146.445312 281.210938 147.753906 279.933594 149.03125 L 279.066406 149.898438 C 278.464844 150.5 277.863281 151.101562 277.261719 151.703125 C 276.496094 152.472656 275.726562 153.238281 274.957031 154.003906 C 274.363281 154.597656 273.769531 155.195312 273.175781 155.789062 L 272.324219 156.636719 C 270.417969 158.535156 270.417969 158.535156 268.617188 160.53125 C 268.199219 161.019531 267.742188 161.472656 267.285156 161.925781 L 266.71875 162.484375 L 265.570312 163.617188 C 264.613281 164.5625 263.6875 165.519531 262.8125 166.539062 C 261.285156 168.308594 259.554688 169.773438 257.695312 171.175781 C 257.257812 171.507812 256.824219 171.847656 256.394531 172.191406 L 255.496094 172.886719 L 255.066406 173.226562 L 254.664062 173.535156 L 254.3125 173.8125 L 253.957031 173.980469 C 253.414062 173.910156 253.140625 173.78125 252.683594 173.46875 L 252.199219 173.070312 L 251.648438 172.617188 C 250.878906 171.972656 250.113281 171.328125 249.351562 170.679688 C 248.640625 170.074219 247.921875 169.480469 247.199219 168.894531 C 246.1875 168.070312 245.195312 167.222656 244.207031 166.367188 C 243.476562 165.742188 242.738281 165.125 241.992188 164.519531 C 240.941406 163.667969 239.917969 162.78125 238.894531 161.894531 C 237.222656 160.441406 235.535156 159.003906 233.816406 157.609375 C 232.898438 156.867188 232.023438 156.085938 231.152344 155.292969 C 230.609375 154.8125 230.054688 154.355469 229.492188 153.902344 C 228.703125 153.261719 227.933594 152.597656 227.1875 151.910156 C 226.277344 151.074219 225.335938 150.285156 224.375 149.507812 C 223.238281 148.574219 222.132812 147.597656 221.019531 146.628906 C 220.398438 146.09375 219.777344 145.558594 219.152344 145.027344 L 218.792969 144.714844 L 218.070312 144.097656 C 217.34375 143.476562 216.617188 142.855469 215.890625 142.230469 C 215.25 141.683594 214.609375 141.136719 213.96875 140.59375 L 213.558594 140.246094 C 213.300781 140.027344 213.042969 139.808594 212.78125 139.589844 C 211.898438 138.839844 211.898438 138.839844 211.667969 138.375 C 212.320312 138.15625 212.847656 138.113281 213.535156 138.074219 L 214.320312 138.027344 L 215.179688 137.980469 L 216.078125 137.925781 C 217.058594 137.871094 218.042969 137.816406 219.023438 137.765625 L 220.042969 137.707031 C 224.679688 137.453125 229.316406 137.234375 233.957031 137.085938 L 234.664062 137.0625 C 236.339844 137.011719 238.019531 136.96875 239.699219 136.929688 C 240.054688 136.921875 240.40625 136.914062 240.761719 136.90625 C 249.46875 136.703125 258.171875 136.671875 266.882812 136.671875 M 91.25 200.425781 C 93.589844 200.371094 95.878906 200.542969 98.203125 200.765625 L 99.410156 200.875 C 102.777344 201.191406 106.132812 201.554688 109.492188 201.925781 C 112.507812 202.253906 115.523438 202.5625 118.542969 202.839844 L 119.007812 202.882812 L 121.375 203.097656 C 127.871094 203.6875 134.351562 204.347656 140.832031 205.058594 L 141.457031 205.125 C 143.566406 205.355469 145.675781 205.589844 147.785156 205.824219 L 148.304688 205.882812 C 149.398438 206.003906 150.496094 206.121094 151.59375 206.234375 L 152.402344 206.316406 C 152.886719 206.367188 153.371094 206.417969 153.855469 206.464844 L 154.480469 206.53125 L 155.019531 206.582031 L 155.417969 206.671875 L 155.625 207.089844 C 155.429688 207.496094 155.429688 207.496094 155.117188 208 L 154.765625 208.574219 L 154.375 209.195312 L 153.972656 209.847656 C 153.554688 210.523438 153.132812 211.203125 152.707031 211.878906 L 152.316406 212.507812 C 151.804688 213.324219 151.292969 214.144531 150.78125 214.960938 C 148.277344 218.957031 145.820312 222.984375 143.375 227.019531 C 142.863281 227.863281 142.351562 228.707031 141.835938 229.550781 C 140.335938 232.011719 138.847656 234.484375 137.378906 236.964844 C 135.046875 240.910156 132.617188 244.761719 130 248.523438 C 129.1875 247.730469 128.425781 246.898438 127.683594 246.039062 L 127.324219 245.625 C 126.453125 244.609375 125.617188 243.570312 124.796875 242.515625 C 124.15625 241.6875 123.492188 240.886719 122.8125 240.09375 C 121.9375 239.066406 121.09375 238.019531 120.265625 236.957031 C 119.527344 236.011719 118.777344 235.082031 118.019531 234.15625 C 117.082031 233.007812 116.15625 231.847656 115.242188 230.679688 C 114.402344 229.601562 113.539062 228.546875 112.675781 227.488281 C 111.9375 226.582031 111.210938 225.667969 110.496094 224.75 C 109.671875 223.691406 108.816406 222.660156 107.945312 221.640625 C 107.253906 220.832031 106.589844 220.003906 105.9375 219.164062 C 105.09375 218.082031 104.222656 217.019531 103.332031 215.976562 C 102.738281 215.28125 102.152344 214.578125 101.574219 213.867188 C 100.855469 212.984375 100.121094 212.117188 99.375 211.253906 C 92.835938 203.65625 92.835938 203.65625 91.25 200.425781 M 252.5 183.351562 C 253.464844 184.15625 254.390625 185.007812 255.273438 185.902344 L 255.632812 186.261719 C 256.132812 186.769531 256.632812 187.273438 257.132812 187.78125 C 258.957031 189.628906 258.957031 189.628906 260.886719 191.363281 C 261.269531 191.699219 261.625 192.054688 261.976562 192.417969 C 262.726562 193.175781 263.535156 193.816406 264.386719 194.453125 L 264.855469 194.804688 C 265.320312 195.152344 265.785156 195.5 266.25 195.84375 L 266.648438 196.140625 C 268.339844 197.398438 270.089844 198.523438 271.917969 199.582031 C 272.265625 199.785156 272.605469 200 272.945312 200.214844 C 277.425781 202.96875 282.652344 204.179688 287.707031 205.421875 L 287.707031 205.839844 C 283.8125 207.773438 279.859375 209.527344 275.863281 211.238281 C 274.050781 212.015625 272.246094 212.808594 270.441406 213.609375 L 269.988281 213.808594 L 269.546875 214.003906 L 269.117188 214.195312 L 267.984375 214.695312 C 267.492188 214.914062 266.996094 215.128906 266.5 215.339844 C 266.007812 215.550781 265.546875 215.765625 265.078125 216.015625 C 264.367188 216.375 263.648438 216.664062 262.902344 216.941406 C 261.929688 217.308594 260.972656 217.714844 260.035156 218.160156 C 258.246094 219.003906 256.441406 219.808594 254.636719 220.609375 L 254.136719 220.832031 C 252.140625 221.71875 250.136719 222.59375 248.121094 223.429688 C 246.914062 223.929688 245.734375 224.476562 244.554688 225.035156 C 242.367188 226.066406 240.152344 227.035156 237.941406 228.015625 L 237.496094 228.214844 L 235.613281 229.046875 C 233.203125 230.117188 230.796875 231.195312 228.394531 232.28125 C 218.445312 236.765625 218.445312 236.765625 214.179688 238.464844 C 213.796875 238.617188 213.417969 238.769531 213.039062 238.925781 L 212.351562 239.191406 L 211.75 239.429688 L 211.25 239.570312 L 210.625 239.363281 C 212.691406 236.261719 214.820312 233.25 217.101562 230.304688 C 217.75 229.457031 218.378906 228.601562 219.011719 227.742188 C 219.988281 226.40625 220.976562 225.078125 221.972656 223.757812 C 222.761719 222.703125 223.546875 221.644531 224.324219 220.585938 C 225.371094 219.160156 226.433594 217.746094 227.511719 216.339844 C 228.679688 214.820312 229.820312 213.277344 230.933594 211.71875 C 231.738281 210.605469 232.566406 209.515625 233.410156 208.429688 C 234.066406 207.578125 234.703125 206.707031 235.339844 205.839844 C 236.390625 204.40625 237.457031 202.984375 238.542969 201.570312 C 240.09375 199.542969 241.613281 197.488281 243.125 195.429688 C 246.140625 191.3125 249.21875 187.261719 252.5 183.351562 M 135.417969 145.453125 C 134.492188 146.761719 133.457031 147.886719 132.316406 149.007812 L 131.835938 149.488281 C 130.957031 150.359375 130.050781 151.199219 129.113281 152.007812 C 128.660156 152.40625 128.234375 152.828125 127.8125 153.261719 C 127.113281 153.972656 126.386719 154.632812 125.632812 155.28125 C 125.160156 155.703125 124.714844 156.144531 124.269531 156.59375 C 123.703125 157.171875 123.128906 157.722656 122.511719 158.246094 C 121.851562 158.8125 121.238281 159.410156 120.625 160.03125 C 120.027344 160.636719 119.425781 161.222656 118.777344 161.773438 C 117.917969 162.507812 117.132812 163.308594 116.339844 164.109375 C 115.636719 164.816406 114.902344 165.496094 114.136719 166.144531 C 113.582031 166.632812 113.066406 167.164062 112.550781 167.695312 C 112.144531 168.089844 111.730469 168.460938 111.304688 168.832031 C 110.425781 169.59375 109.582031 170.386719 108.738281 171.183594 L 107.800781 172.066406 L 107.332031 172.511719 C 106.652344 173.152344 105.96875 173.789062 105.289062 174.425781 L 104.902344 174.785156 L 103.367188 176.210938 C 102.71875 176.816406 102.070312 177.417969 101.425781 178.023438 C 100.898438 178.515625 100.371094 179.007812 99.839844 179.496094 C 97.644531 181.53125 95.53125 183.640625 93.425781 185.765625 C 92.359375 186.84375 91.296875 187.910156 90.132812 188.886719 C 89.757812 189.210938 89.410156 189.554688 89.0625 189.910156 C 87.144531 191.859375 87.144531 191.859375 86.25 192.304688 C 84.59375 187.949219 83.03125 183.570312 81.578125 179.140625 C 81.113281 177.730469 80.644531 176.320312 80.167969 174.914062 C 77.632812 167.347656 75.121094 159.769531 72.8125 152.132812 L 72.582031 151.363281 L 72.378906 150.679688 L 72.203125 150.097656 C 72.085938 149.621094 72.085938 149.621094 72.085938 148.996094 L 72.644531 148.992188 C 87.230469 148.925781 101.625 148.03125 116.148438 146.757812 C 120.566406 146.371094 124.988281 146.003906 129.414062 145.710938 L 130.015625 145.667969 C 130.570312 145.632812 131.128906 145.59375 131.6875 145.558594 L 132.175781 145.527344 C 133.257812 145.457031 134.332031 145.445312 135.417969 145.453125 M 159.167969 209.796875 C 160.34375 210.421875 161.335938 211.164062 162.355469 212.019531 L 162.828125 212.414062 C 163.828125 213.246094 164.804688 214.105469 165.765625 214.984375 C 166.308594 215.46875 166.867188 215.925781 167.433594 216.378906 C 168.222656 217.019531 168.949219 217.675781 169.65625 218.402344 C 170.148438 218.898438 170.675781 219.347656 171.203125 219.800781 C 171.734375 220.265625 172.253906 220.742188 172.773438 221.222656 C 173.714844 222.082031 174.6875 222.886719 175.675781 223.6875 C 176.464844 224.34375 177.214844 225.039062 177.96875 225.730469 C 178.523438 226.230469 179.09375 226.703125 179.675781 227.167969 C 180.621094 227.929688 181.511719 228.734375 182.398438 229.558594 C 183.066406 230.175781 183.757812 230.765625 184.464844 231.332031 C 185.59375 232.242188 186.648438 233.214844 187.707031 234.203125 C 188.324219 234.777344 188.953125 235.332031 189.59375 235.882812 C 190.261719 236.46875 190.917969 237.0625 191.574219 237.660156 C 192.023438 238.058594 192.472656 238.453125 192.929688 238.84375 C 193.710938 239.519531 194.429688 240.246094 195.15625 240.984375 C 195.839844 241.65625 196.558594 242.28125 197.292969 242.902344 L 197.082031 243.320312 C 196.464844 243.449219 195.863281 243.546875 195.238281 243.636719 L 194.652344 243.722656 C 194.007812 243.816406 193.363281 243.90625 192.71875 243.996094 L 191.355469 244.191406 C 186.929688 244.820312 182.492188 245.347656 178.050781 245.859375 C 175.75 246.125 173.449219 246.394531 171.148438 246.667969 L 170.464844 246.746094 C 166.765625 247.183594 163.066406 247.652344 159.375 248.160156 C 154.828125 248.785156 150.277344 249.339844 145.714844 249.867188 L 145.238281 249.921875 C 144.191406 250.042969 143.144531 250.160156 142.097656 250.28125 L 141.300781 250.371094 C 137.09375 250.847656 137.09375 250.847656 135.585938 250.828125 L 135.003906 250.824219 L 134.582031 250.816406 C 137.042969 245.382812 140.1875 240.335938 143.386719 235.3125 C 144.480469 233.589844 145.535156 231.839844 146.59375 230.09375 C 147.488281 228.613281 148.394531 227.140625 149.308594 225.671875 C 150.257812 224.152344 151.171875 222.613281 152.070312 221.066406 C 154.304688 217.214844 156.601562 213.4375 159.167969 209.796875 " fill-opacity="1" fill-rule="nonzero"></path>
  <path fill="#612af1" d="M 334.179688 195.5 L 334.84375 195.582031 C 335.296875 195.640625 335.753906 195.699219 336.207031 195.757812 C 337.214844 195.890625 338.226562 196.015625 339.234375 196.140625 L 340.414062 196.289062 L 341.011719 196.367188 L 342.269531 196.523438 C 344.605469 196.820312 346.9375 197.105469 349.277344 197.363281 C 352.746094 197.742188 356.191406 198.140625 359.621094 198.785156 L 360.4375 198.9375 C 361.738281 199.195312 362.945312 199.496094 364.164062 200.007812 L 364.164062 200.425781 C 360.847656 202 357.484375 203.410156 354.054688 204.726562 C 352.929688 205.164062 351.800781 205.605469 350.675781 206.046875 L 349.964844 206.328125 C 344.894531 208.316406 339.835938 210.328125 334.769531 212.335938 L 333.570312 212.808594 L 329.71875 214.339844 C 327.007812 215.414062 324.296875 216.484375 321.582031 217.546875 C 319.902344 218.207031 318.222656 218.871094 316.546875 219.542969 L 314.558594 220.339844 C 313.59375 220.726562 312.628906 221.113281 311.660156 221.5 C 308.835938 222.625 306.015625 223.757812 303.199219 224.898438 C 299.191406 226.519531 295.183594 228.136719 291.164062 229.734375 C 290.703125 229.921875 290.238281 230.105469 289.773438 230.292969 C 287.269531 231.292969 284.753906 232.257812 282.210938 233.152344 L 281.503906 233.40625 L 280.851562 233.632812 L 280.277344 233.832031 L 279.789062 233.949219 L 279.164062 233.742188 C 280.632812 230.980469 282.277344 228.367188 284.007812 225.761719 C 284.515625 224.988281 285.019531 224.210938 285.519531 223.433594 C 286.140625 222.46875 286.769531 221.507812 287.398438 220.550781 C 288.75 218.5 290.070312 216.4375 291.339844 214.335938 C 295.125 208.089844 295.125 208.089844 297.382812 206.632812 C 300.125 205.179688 303.078125 204.144531 306.019531 203.175781 C 309.039062 202.179688 312.027344 201.121094 314.984375 199.957031 L 315.453125 199.773438 C 316.203125 199.476562 316.953125 199.183594 317.699219 198.886719 C 328.207031 194.714844 328.207031 194.714844 334.179688 195.5 " fill-opacity="1" fill-rule="nonzero"></path>
  <path fill="#703def" d="M 211.195312 246.410156 L 211.777344 246.414062 C 213.523438 246.425781 215.253906 246.539062 216.992188 246.6875 C 220.574219 246.984375 224.15625 247.152344 227.746094 247.277344 C 231.046875 247.390625 234.339844 247.535156 237.628906 247.785156 L 238.113281 247.816406 C 240.4375 247.988281 242.710938 248.320312 245 248.734375 C 244.59375 249.808594 244.03125 250.726562 243.425781 251.699219 C 243.304688 251.894531 243.183594 252.089844 243.058594 252.289062 C 241.816406 254.269531 240.496094 256.195312 239.175781 258.121094 C 237.980469 259.863281 236.804688 261.613281 235.625 263.363281 L 234.441406 265.113281 C 232.921875 267.363281 232.921875 267.363281 231.414062 269.625 C 230.597656 270.855469 229.765625 272.074219 228.894531 273.265625 C 228.660156 273.582031 228.429688 273.902344 228.199219 274.21875 C 228.082031 274.375 227.964844 274.535156 227.847656 274.699219 C 227.503906 275.171875 227.164062 275.644531 226.828125 276.117188 C 225.335938 278.199219 223.792969 280.234375 222.207031 282.246094 C 221.71875 282.871094 221.238281 283.5 220.753906 284.132812 C 219.289062 286.035156 217.773438 287.894531 216.25 289.753906 L 215.3125 290.898438 L 214.839844 291.472656 C 214.539062 291.84375 214.238281 292.214844 213.941406 292.585938 C 212.789062 294.027344 211.550781 295.367188 210.285156 296.707031 C 209.550781 297.488281 208.839844 298.285156 208.136719 299.09375 C 207.613281 299.640625 207.046875 300.101562 206.457031 300.582031 C 206.355469 299.910156 206.257812 299.234375 206.160156 298.5625 L 206.074219 298 C 205.683594 295.335938 205.585938 292.671875 205.539062 289.984375 C 205.527344 289.394531 205.515625 288.804688 205.503906 288.214844 C 205.488281 287.371094 205.472656 286.527344 205.453125 285.6875 C 205.414062 283.492188 205.367188 281.300781 205.320312 279.109375 L 205.304688 278.453125 C 205.226562 274.769531 205.125 271.089844 204.988281 267.410156 L 204.960938 266.730469 C 204.894531 264.894531 204.816406 263.0625 204.734375 261.226562 C 204.613281 258.597656 204.550781 255.976562 204.554688 253.34375 C 204.558594 252.753906 204.554688 252.164062 204.554688 251.574219 C 204.554688 251.191406 204.554688 250.8125 204.554688 250.429688 L 204.554688 249.902344 C 204.558594 249.003906 204.613281 248.160156 204.792969 247.277344 C 205.246094 247.175781 205.703125 247.074219 206.160156 246.976562 L 206.925781 246.808594 C 208.367188 246.519531 209.734375 246.40625 211.195312 246.410156 " fill-opacity="1" fill-rule="nonzero"></path>
  <path fill="#612af1" d="M 164.375 281.425781 C 167.875 282.703125 171.140625 285.792969 173.988281 288.136719 C 175.34375 289.25 176.746094 290.292969 178.15625 291.339844 C 178.847656 291.855469 179.527344 292.382812 180.210938 292.910156 L 180.546875 293.167969 L 180.890625 293.433594 C 182.1875 294.429688 183.488281 295.421875 184.792969 296.417969 L 185.324219 296.820312 L 186.992188 298.09375 L 187.554688 298.523438 C 188.539062 299.273438 189.527344 300.015625 190.519531 300.753906 C 192.019531 301.863281 193.457031 303.023438 194.867188 304.242188 C 195.484375 304.777344 196.109375 305.300781 196.730469 305.824219 L 197.917969 306.828125 C 197.4375 307.304688 197.144531 307.386719 196.503906 307.585938 L 195.835938 307.789062 L 195.078125 308.011719 L 194.675781 308.132812 C 190.464844 309.382812 186.207031 310.480469 181.960938 311.605469 C 179.046875 312.382812 176.140625 313.167969 173.230469 313.957031 L 172.445312 314.171875 C 166.558594 315.769531 160.675781 317.375 154.804688 319.035156 C 144.820312 321.855469 144.820312 321.855469 141.300781 322.664062 L 140.746094 322.792969 C 139.929688 322.976562 139.175781 323.121094 138.332031 323.070312 C 139.65625 320.140625 141.417969 317.453125 143.125 314.738281 L 143.511719 314.125 C 144.992188 311.773438 146.503906 309.445312 148.027344 307.117188 C 149.15625 305.390625 150.261719 303.648438 151.359375 301.898438 C 151.679688 301.394531 152 300.890625 152.320312 300.382812 L 152.648438 299.863281 C 152.851562 299.542969 153.054688 299.222656 153.257812 298.898438 C 154.5 296.941406 155.707031 294.964844 156.90625 292.980469 C 159.277344 289.050781 161.765625 285.199219 164.375 281.425781 " fill-opacity="1" fill-rule="nonzero"></path>
  <path fill="#5740eb" d="M 301.664062 137.335938 C 305.109375 138.699219 308.542969 140.097656 311.964844 141.519531 C 312.65625 141.808594 313.351562 142.09375 314.042969 142.382812 C 319.445312 144.625 324.839844 146.882812 330.207031 149.203125 L 331.019531 149.554688 C 333.242188 150.511719 335.460938 151.476562 337.675781 152.441406 C 338.488281 152.796875 339.300781 153.148438 340.113281 153.503906 C 341.679688 154.183594 343.25 154.84375 344.84375 155.460938 C 348.382812 156.847656 351.832031 158.496094 355.207031 160.238281 C 354.90625 161.214844 354.328125 161.835938 353.632812 162.554688 C 352.816406 163.410156 352.039062 164.273438 351.300781 165.195312 C 350.625 166.039062 349.914062 166.800781 349.140625 167.550781 C 348.636719 168.054688 348.175781 168.585938 347.714844 169.125 C 346.867188 170.09375 345.980469 171.027344 345.109375 171.972656 C 344.625 172.492188 344.148438 173.015625 343.671875 173.539062 C 342.320312 175.015625 340.949219 176.476562 339.582031 177.9375 C 338.089844 179.535156 336.597656 181.132812 335.113281 182.742188 C 334.539062 183.363281 333.964844 183.984375 333.382812 184.601562 L 332.984375 185.027344 C 332.726562 185.300781 332.46875 185.574219 332.214844 185.84375 C 331.738281 186.351562 331.289062 186.839844 330.878906 187.398438 L 330.625 187.722656 L 330.207031 187.722656 L 329.921875 187.21875 C 329.222656 185.980469 328.511719 184.753906 327.761719 183.550781 C 326.542969 181.585938 325.410156 179.578125 324.292969 177.554688 C 323.496094 176.105469 322.683594 174.664062 321.859375 173.226562 C 320.953125 171.644531 320.054688 170.054688 319.164062 168.464844 C 318.171875 166.683594 317.167969 164.910156 316.152344 163.144531 C 315.347656 161.742188 314.5625 160.335938 313.773438 158.925781 C 312.695312 156.988281 311.589844 155.074219 310.46875 153.164062 C 309.597656 151.679688 308.753906 150.183594 307.914062 148.683594 C 306.941406 146.929688 305.949219 145.191406 304.933594 143.464844 C 304.089844 142.023438 303.246094 140.582031 302.421875 139.128906 L 302.183594 138.71875 C 301.664062 137.800781 301.664062 137.800781 301.664062 137.335938 " fill-opacity="1" fill-rule="nonzero"></path>
  <path fill="#703def" d="M 297.511719 176.386719 C 299.355469 177.34375 301.125 178.390625 302.871094 179.515625 C 303.574219 179.96875 304.285156 180.417969 304.996094 180.867188 C 305.589844 181.246094 306.183594 181.625 306.777344 182.003906 C 307.464844 182.441406 308.152344 182.875 308.847656 183.308594 C 310.902344 184.585938 312.925781 185.910156 314.941406 187.25 C 315.246094 187.449219 315.546875 187.648438 315.847656 187.851562 C 317.695312 189.074219 319.496094 190.328125 321.25 191.679688 C 317.472656 194.195312 312.523438 195.511719 308.300781 197.101562 C 306.492188 197.78125 304.691406 198.476562 302.890625 199.175781 L 302.058594 199.5 C 301.441406 199.738281 300.824219 199.976562 300.207031 200.21875 L 300 199.800781 C 300.148438 199.222656 300.308594 198.644531 300.480469 198.070312 C 301.269531 195.21875 301.777344 192.152344 301.222656 189.210938 C 300.839844 187.835938 300.300781 186.644531 299.359375 185.5625 C 298.386719 184.644531 297.351562 183.878906 296.039062 183.558594 C 294.671875 183.40625 293.34375 183.410156 292.03125 183.859375 C 290.601562 184.53125 289.492188 185.585938 288.523438 186.816406 C 287.554688 188.242188 286.988281 189.574219 286.835938 191.292969 C 286.640625 194.21875 287.125 196.925781 287.820312 199.757812 C 287.914062 200.21875 287.914062 200.21875 287.914062 200.84375 C 285.230469 200.222656 282.613281 199.425781 280 198.550781 L 279.542969 198.402344 C 273.078125 196.226562 267.617188 192.375 262.707031 187.722656 L 262.230469 187.273438 C 260.535156 185.632812 259.136719 183.753906 257.746094 181.855469 L 257.398438 181.382812 C 256.695312 180.410156 256.132812 179.441406 255.625 178.355469 C 261.019531 175.226562 266.820312 173.777344 272.914062 172.730469 L 273.40625 172.648438 C 281.675781 171.269531 290.089844 172.597656 297.511719 176.386719 M 49.167969 51.753906 L 49.585938 51.753906 C 50.367188 54.769531 51.148438 57.78125 51.929688 60.796875 C 52.273438 62.121094 52.617188 63.441406 52.960938 64.761719 C 53.132812 65.425781 53.304688 66.089844 53.476562 66.75 C 53.554688 67.046875 53.632812 67.34375 53.710938 67.640625 C 55.351562 73.90625 55.351562 73.90625 54.617188 76.9375 C 54.375 77.792969 54.070312 78.621094 53.75 79.449219 L 53.578125 79.90625 C 52.648438 82.351562 51.601562 84.75 50.566406 87.152344 C 49.792969 88.949219 49.039062 90.757812 48.296875 92.566406 C 47.316406 94.949219 46.289062 97.308594 45.210938 99.644531 L 44.585938 99.644531 C 44.253906 99.386719 44.253906 99.386719 43.90625 99.019531 L 43.519531 98.613281 C 43.027344 98.078125 42.546875 97.535156 42.070312 96.984375 C 41.609375 96.453125 41.128906 95.9375 40.652344 95.417969 C 39.804688 94.488281 39 93.53125 38.210938 92.554688 C 37.644531 91.863281 37.066406 91.1875 36.484375 90.511719 C 35.667969 89.5625 34.859375 88.613281 34.050781 87.660156 L 33.765625 87.324219 C 33.296875 86.769531 32.828125 86.214844 32.359375 85.660156 C 31.332031 84.4375 30.292969 83.226562 29.246094 82.023438 C 28.320312 80.960938 27.410156 79.878906 26.523438 78.78125 C 25.964844 78.105469 25.394531 77.441406 24.820312 76.78125 C 23.769531 75.566406 22.769531 74.320312 21.785156 73.050781 C 21.160156 72.25 20.515625 71.464844 19.867188 70.679688 L 19.585938 70.285156 L 19.585938 69.871094 C 20.007812 69.546875 20.007812 69.546875 20.613281 69.15625 L 20.953125 68.933594 C 21.203125 68.773438 21.449219 68.613281 21.695312 68.453125 C 22.078125 68.207031 22.457031 67.960938 22.835938 67.710938 C 25.410156 66.015625 28.050781 64.429688 30.691406 62.835938 C 31.808594 62.164062 32.921875 61.488281 34.039062 60.8125 L 34.769531 60.371094 C 36.070312 59.582031 37.367188 58.789062 38.660156 57.988281 C 41.742188 56.074219 44.859375 54.25 48.023438 52.472656 C 48.414062 52.246094 48.792969 52.003906 49.167969 51.753906 " fill-opacity="1" fill-rule="nonzero"></path>
  <path fill="#703def" d="M 296.25 139.832031 C 297.136719 140.648438 297.753906 141.519531 298.382812 142.539062 L 298.707031 143.054688 C 299.910156 144.996094 301.058594 146.972656 302.210938 148.949219 C 304.351562 152.617188 306.558594 156.246094 308.765625 159.875 C 309.5 161.078125 310.226562 162.28125 310.949219 163.492188 C 312.6875 166.394531 314.476562 169.261719 316.257812 172.136719 C 317.6875 174.441406 319.105469 176.75 320.507812 179.070312 C 320.710938 179.402344 320.910156 179.734375 321.113281 180.0625 C 324.414062 185.492188 324.414062 185.492188 325.414062 187.933594 C 324.664062 187.652344 323.992188 187.3125 323.300781 186.902344 L 322.675781 186.527344 L 322.003906 186.125 C 321.773438 185.984375 321.542969 185.84375 321.304688 185.703125 C 319.160156 184.40625 317.058594 183.042969 314.96875 181.664062 C 311.878906 179.621094 308.773438 177.601562 305.625 175.648438 L 305.207031 175.390625 C 304.3125 174.835938 303.410156 174.296875 302.5 173.773438 L 302.089844 173.539062 C 297.363281 170.847656 292.082031 169.152344 286.664062 168.566406 L 286.078125 168.5 C 282.820312 168.179688 279.507812 168.3125 276.242188 168.492188 C 273.332031 168.636719 270.414062 168.585938 267.5 168.566406 C 267.777344 167.835938 268.003906 167.367188 268.582031 166.835938 C 269.085938 166.363281 269.5625 165.863281 270.007812 165.335938 C 271.003906 164.191406 272.078125 163.128906 273.148438 162.058594 C 273.371094 161.835938 273.59375 161.613281 273.816406 161.390625 C 274.28125 160.925781 274.746094 160.460938 275.210938 160 C 275.804688 159.40625 276.394531 158.816406 276.988281 158.222656 C 277.445312 157.765625 277.90625 157.304688 278.367188 156.847656 L 279.019531 156.191406 C 280.097656 155.113281 281.183594 154.042969 282.347656 153.054688 C 283.023438 152.46875 283.652344 151.828125 284.28125 151.195312 L 284.675781 150.804688 C 285.324219 150.152344 285.949219 149.492188 286.546875 148.792969 C 287.324219 147.894531 288.175781 147.089844 289.046875 146.289062 C 289.949219 145.453125 290.84375 144.617188 291.703125 143.746094 C 292.320312 143.121094 292.972656 142.539062 293.65625 141.992188 C 294.535156 141.289062 295.398438 140.570312 296.25 139.832031 M 78.125 58.625 C 78.496094 58.761719 78.496094 58.761719 78.960938 59.042969 C 79.328125 59.554688 79.328125 59.554688 79.707031 60.207031 L 79.914062 60.566406 C 80.140625 60.953125 80.363281 61.34375 80.585938 61.738281 C 80.746094 62.011719 80.902344 62.285156 81.0625 62.558594 C 82.488281 65.03125 83.871094 67.523438 85.25 70.023438 C 86.800781 72.828125 88.367188 75.621094 89.988281 78.382812 C 91.941406 81.710938 93.875 85.070312 95.613281 88.519531 L 95.816406 88.925781 C 96.25 89.804688 96.25 89.804688 96.25 90.277344 L 95.898438 90.375 C 91.730469 91.558594 87.570312 92.765625 83.410156 93.980469 C 81.046875 94.667969 78.683594 95.351562 76.316406 96.03125 C 72.660156 97.082031 69.015625 98.132812 65.398438 99.316406 C 64.097656 99.742188 62.78125 100.121094 61.460938 100.480469 L 61.25 100.269531 C 61.230469 99.984375 61.21875 99.699219 61.21875 99.410156 L 61.214844 98.847656 L 61.214844 98.226562 L 61.210938 97.574219 C 61.207031 96.859375 61.203125 96.140625 61.203125 95.425781 L 61.199219 94.683594 C 61.195312 93.390625 61.191406 92.09375 61.191406 90.796875 C 61.1875 89.460938 61.179688 88.125 61.171875 86.789062 C 61.167969 85.761719 61.164062 84.730469 61.164062 83.703125 C 61.164062 83.210938 61.160156 82.71875 61.15625 82.226562 C 61.117188 76.898438 61.117188 76.898438 62.300781 74.664062 C 62.527344 74.3125 62.527344 74.3125 63.035156 73.695312 L 63.320312 73.34375 C 64.582031 71.847656 66.007812 70.496094 67.40625 69.128906 C 67.976562 68.574219 68.515625 68.007812 69.035156 67.402344 C 69.925781 66.367188 70.890625 65.410156 71.859375 64.445312 C 72.175781 64.132812 72.492188 63.816406 72.804688 63.5 C 73.917969 62.386719 75.050781 61.3125 76.25 60.292969 C 76.597656 59.984375 76.945312 59.675781 77.292969 59.367188 L 77.773438 58.9375 Z M 200 251.855469 L 200.417969 251.855469 C 200.457031 254.511719 200.496094 257.171875 200.527344 259.828125 C 200.644531 269.117188 200.644531 278.40625 200.636719 287.695312 L 200.636719 288.25 C 200.636719 292.984375 200.632812 297.71875 200.625 302.453125 C 200.328125 302.257812 200.027344 302.058594 199.730469 301.863281 L 199.226562 301.53125 C 198.59375 301.097656 197.992188 300.632812 197.394531 300.152344 C 197.144531 299.953125 196.894531 299.75 196.640625 299.550781 L 196.246094 299.238281 C 195.519531 298.667969 194.785156 298.109375 194.050781 297.546875 L 193.59375 297.199219 L 192.703125 296.523438 C 192.113281 296.074219 191.527344 295.621094 190.9375 295.167969 C 189.765625 294.265625 188.589844 293.363281 187.410156 292.464844 C 186.664062 291.894531 185.914062 291.320312 185.167969 290.746094 C 182.8125 288.9375 180.425781 287.175781 178.027344 285.421875 C 175.878906 283.847656 173.75 282.253906 171.667969 280.589844 L 171.105469 280.144531 C 170.769531 279.878906 170.433594 279.609375 170.097656 279.335938 C 169.714844 279.03125 169.332031 278.730469 168.945312 278.429688 L 168.308594 277.921875 L 167.71875 277.464844 L 167.292969 277.050781 L 167.292969 276.425781 C 167.710938 276.105469 167.710938 276.105469 168.292969 275.761719 C 169.324219 275.136719 170.296875 274.464844 171.265625 273.75 C 171.808594 273.355469 172.355469 272.960938 172.90625 272.570312 C 175.554688 270.695312 178.140625 268.730469 180.6875 266.710938 C 181.039062 266.433594 181.394531 266.15625 181.746094 265.882812 C 183.246094 264.714844 184.71875 263.519531 186.183594 262.308594 C 187.222656 261.449219 188.277344 260.605469 189.34375 259.777344 C 189.949219 259.304688 190.554688 258.824219 191.152344 258.339844 C 196.984375 253.617188 196.984375 253.617188 200 251.855469 " fill-opacity="1" fill-rule="nonzero"></path>
  <path fill="#703eef" d="M 286.875 270.386719 C 285.550781 274.570312 283.550781 278.535156 281.429688 282.363281 C 279.996094 284.957031 278.664062 287.59375 277.355469 290.246094 C 274.027344 296.996094 270.847656 302.058594 264.582031 306.410156 L 264.113281 306.742188 C 263.6875 307.039062 263.257812 307.339844 262.824219 307.632812 L 262.441406 307.902344 C 262.121094 308.113281 261.789062 308.304688 261.457031 308.492188 L 260.625 308.492188 C 258.917969 304.816406 257.304688 301.117188 255.796875 297.355469 L 255.40625 296.371094 C 255.339844 296.207031 255.273438 296.042969 255.207031 295.875 C 254.472656 294.046875 253.710938 292.230469 252.953125 290.414062 C 251.171875 286.140625 249.484375 281.867188 248.035156 277.46875 L 247.859375 276.933594 C 247.707031 276.421875 247.597656 275.910156 247.5 275.386719 C 249.890625 274.871094 252.289062 274.507812 254.714844 274.1875 L 255.898438 274.027344 C 258.152344 273.726562 260.40625 273.429688 262.664062 273.136719 L 264.125 272.945312 C 265.054688 272.824219 265.984375 272.703125 266.914062 272.582031 C 269.359375 272.265625 271.800781 271.914062 274.234375 271.511719 C 278.445312 270.820312 282.605469 270.335938 286.875 270.386719 " fill-opacity="1" fill-rule="nonzero"></path>
  <path fill="#8755eb" d="M 267.105469 243.21875 C 267.84375 243.15625 268.4375 243.167969 269.164062 243.320312 C 270.152344 243.949219 270.894531 244.738281 271.664062 245.609375 L 271.960938 245.9375 C 273.472656 247.628906 274.855469 249.441406 276.25 251.230469 C 277.34375 252.636719 278.4375 254.035156 279.582031 255.394531 C 280.628906 256.640625 281.632812 257.914062 282.632812 259.195312 C 282.910156 259.554688 283.191406 259.910156 283.472656 260.265625 L 284.007812 260.953125 L 284.480469 261.554688 C 284.941406 262.167969 285.351562 262.808594 285.761719 263.457031 L 286.15625 264.082031 L 286.457031 264.558594 C 281.519531 265.429688 276.578125 266.261719 271.609375 266.957031 L 270.980469 267.046875 C 269.917969 267.195312 268.855469 267.34375 267.796875 267.488281 C 258.925781 268.710938 258.925781 268.710938 250.105469 270.21875 L 249.488281 270.335938 L 248.324219 270.554688 L 247.777344 270.65625 L 247.257812 270.753906 C 243.597656 271.4375 239.972656 271.75 236.25 271.636719 C 237.117188 269.785156 238.066406 268.007812 239.148438 266.273438 L 239.503906 265.703125 C 240.808594 263.617188 242.179688 261.574219 243.554688 259.535156 C 244.046875 258.800781 244.539062 258.066406 245.03125 257.332031 L 245.394531 256.792969 C 246.332031 255.390625 247.242188 253.96875 248.128906 252.53125 C 248.933594 251.242188 249.796875 250.058594 250.832031 248.941406 L 251.203125 248.53125 C 253.753906 246 258.101562 245.292969 261.441406 244.40625 C 263.328125 243.910156 265.175781 243.519531 267.105469 243.21875 " fill-opacity="1" fill-rule="nonzero"></path>
  <path fill="#703def" d="M 42.5 172.730469 C 44.964844 173.902344 47.28125 175.234375 49.585938 176.6875 L 50.140625 177.039062 C 52.238281 178.363281 54.328125 179.703125 56.40625 181.054688 C 57.636719 181.851562 58.878906 182.636719 60.121094 183.417969 C 61.199219 184.097656 62.277344 184.78125 63.355469 185.46875 C 65.054688 186.554688 66.761719 187.628906 68.476562 188.6875 C 72.863281 191.394531 77.246094 194.121094 81.460938 197.09375 C 81.109375 198.925781 80.503906 200.667969 79.910156 202.429688 L 79.742188 202.933594 C 78.679688 206.089844 77.582031 209.230469 76.453125 212.359375 C 76.21875 213.011719 75.984375 213.660156 75.75 214.308594 C 75.28125 215.617188 74.808594 216.921875 74.335938 218.226562 C 74.144531 218.757812 73.957031 219.285156 73.765625 219.816406 C 73.496094 220.5625 73.226562 221.308594 72.957031 222.050781 L 72.707031 222.742188 L 72.476562 223.375 L 72.277344 223.929688 C 72.085938 224.371094 72.085938 224.371094 71.667969 224.789062 C 68.660156 221.359375 65.785156 217.875 63.125 214.167969 L 62.753906 213.652344 C 59.53125 209.152344 56.671875 204.4375 53.90625 199.644531 L 53.617188 199.144531 C 42.5 179.730469 42.5 179.730469 42.5 172.730469 " fill-opacity="1" fill-rule="nonzero"></path>
  <path fill="#8755eb" d="M 194.582031 248.941406 C 192.949219 250.972656 190.953125 252.578125 188.902344 254.164062 C 188.085938 254.800781 187.285156 255.457031 186.484375 256.113281 C 185.25 257.121094 183.992188 258.085938 182.710938 259.035156 C 181.265625 260.109375 179.875 261.25 178.484375 262.390625 C 177.859375 262.902344 177.226562 263.402344 176.597656 263.902344 C 176.15625 264.257812 175.71875 264.613281 175.285156 264.972656 C 169.160156 270.003906 169.160156 270.003906 166.609375 270.730469 C 165.03125 270.933594 163.53125 270.742188 161.972656 270.46875 L 161.324219 270.355469 C 158.34375 269.839844 155.375 269.261719 152.410156 268.683594 L 151.945312 268.59375 C 133.261719 264.957031 133.261719 264.957031 124.582031 261.851562 C 126.058594 259.847656 127.546875 258.226562 129.792969 257.0625 C 130.542969 256.761719 131.289062 256.589844 132.082031 256.4375 L 132.828125 256.292969 C 135.160156 255.871094 137.511719 255.652344 139.867188 255.410156 C 152.722656 254.097656 165.554688 252.40625 178.359375 250.65625 C 181.359375 250.246094 184.363281 249.839844 187.371094 249.476562 L 188.152344 249.378906 C 190.289062 249.125 192.429688 248.898438 194.582031 248.941406 " fill-opacity="1" fill-rule="nonzero"></path>
  <path fill="#703def" d="M 287.082031 211.667969 L 287.707031 211.878906 C 285.851562 215.371094 283.660156 218.625 281.449219 221.902344 C 279.683594 224.523438 277.949219 227.164062 276.292969 229.863281 C 272.582031 235.898438 272.582031 235.898438 270.101562 237.386719 C 268.660156 238.121094 267.164062 238.5625 265.609375 238.988281 L 264.925781 239.179688 C 262.351562 239.886719 259.769531 240.542969 257.179688 241.191406 C 256.636719 241.324219 256.089844 241.464844 255.546875 241.601562 C 251.394531 242.65625 247.417969 243.65625 243.113281 243.617188 L 242.636719 243.617188 C 235.144531 243.585938 226.9375 243.414062 219.582031 241.863281 C 220.375 240.984375 221.4375 240.539062 222.472656 240 L 223.171875 239.640625 C 225.628906 238.386719 228.175781 237.359375 230.734375 236.328125 C 231.820312 235.882812 232.898438 235.414062 233.972656 234.9375 L 234.597656 234.660156 C 235.289062 234.355469 235.976562 234.046875 236.667969 233.742188 C 237.726562 233.269531 238.785156 232.800781 239.84375 232.328125 L 240.808594 231.898438 C 243.066406 230.894531 245.324219 229.898438 247.589844 228.914062 C 249.878906 227.914062 252.164062 226.902344 254.441406 225.878906 C 256.691406 224.867188 258.953125 223.871094 261.210938 222.875 C 264.183594 221.5625 267.152344 220.242188 270.117188 218.90625 C 281.359375 213.839844 281.359375 213.839844 285.621094 212.246094 C 285.96875 212.113281 286.308594 211.96875 286.648438 211.816406 Z M 7.917969 19.6875 C 8.867188 20.007812 9.613281 20.539062 10.40625 21.132812 L 10.820312 21.441406 C 13.53125 23.464844 16.144531 25.605469 18.761719 27.742188 C 20.394531 29.074219 22.035156 30.394531 23.710938 31.671875 C 25.449219 33 27.160156 34.363281 28.867188 35.734375 C 29.832031 36.507812 30.804688 37.273438 31.785156 38.023438 C 34.222656 39.890625 36.621094 41.800781 38.996094 43.742188 C 39.335938 44.019531 39.675781 44.292969 40.015625 44.566406 C 41.015625 45.375 41.996094 46.199219 42.957031 47.058594 L 43.539062 47.578125 L 43.960938 48.007812 L 43.960938 48.421875 C 43.613281 48.691406 43.613281 48.691406 43.117188 49 L 42.5625 49.347656 L 41.953125 49.726562 L 40.6875 50.519531 L 40.027344 50.933594 C 39.027344 51.554688 38.039062 52.1875 37.046875 52.820312 C 36.292969 53.300781 35.542969 53.777344 34.792969 54.253906 L 34.269531 54.585938 C 32.363281 55.796875 30.449219 56.996094 28.519531 58.167969 C 27.527344 58.773438 26.535156 59.382812 25.550781 59.996094 C 23.71875 61.136719 21.882812 62.261719 20.03125 63.367188 C 19.777344 63.519531 19.523438 63.675781 19.269531 63.828125 C 18.914062 64.042969 18.558594 64.253906 18.203125 64.46875 L 17.578125 64.84375 L 17.085938 65.082031 L 16.667969 64.871094 C 16.507812 64.417969 16.507812 64.417969 16.351562 63.804688 L 16.175781 63.109375 L 15.992188 62.347656 L 15.796875 61.554688 C 14.886719 57.8125 14.195312 54.027344 13.566406 50.226562 L 13.425781 49.386719 L 13.355469 48.957031 C 12.769531 45.472656 12.066406 42.007812 11.367188 38.546875 L 11.277344 38.097656 C 11.011719 36.78125 10.746094 35.464844 10.480469 34.148438 C 10.027344 31.898438 9.582031 29.644531 9.140625 27.394531 L 9.058594 26.964844 C 8.761719 25.4375 8.472656 23.902344 8.191406 22.371094 L 8.109375 21.921875 C 7.976562 21.167969 7.886719 20.453125 7.917969 19.6875 M 84.792969 203.132812 C 85.0625 203.332031 85.328125 203.53125 85.597656 203.730469 L 86.046875 204.066406 C 87.390625 205.097656 88.488281 206.433594 89.585938 207.714844 C 89.777344 207.9375 89.972656 208.160156 90.164062 208.386719 C 91.125 209.5 92.082031 210.617188 93.007812 211.761719 C 93.96875 212.945312 94.96875 214.09375 95.972656 215.242188 C 96.640625 216.011719 97.308594 216.789062 97.96875 217.566406 C 98.679688 218.402344 99.40625 219.226562 100.144531 220.039062 C 100.769531 220.726562 101.371094 221.433594 101.953125 222.160156 C 102.628906 222.996094 103.332031 223.792969 104.0625 224.578125 C 104.960938 225.542969 105.804688 226.542969 106.628906 227.566406 C 107.226562 228.292969 107.859375 228.984375 108.492188 229.675781 C 108.960938 230.203125 109.402344 230.746094 109.84375 231.292969 C 110.816406 232.496094 111.863281 233.613281 112.917969 234.738281 C 113.632812 235.5 114.320312 236.28125 115 237.074219 L 115.546875 237.695312 C 116.730469 239.046875 117.867188 240.4375 118.957031 241.863281 L 119.300781 242.308594 C 119.910156 243.113281 120.511719 243.917969 121.042969 244.777344 L 121.042969 245.195312 C 114.851562 243.800781 109.003906 241.140625 103.214844 238.605469 C 100.691406 237.507812 98.152344 236.449219 95.613281 235.394531 L 94.953125 235.121094 C 92.921875 234.273438 90.894531 233.433594 88.859375 232.597656 C 86.300781 231.546875 83.75 230.476562 81.210938 229.382812 L 80.816406 229.210938 C 79.269531 228.546875 77.746094 227.851562 76.25 227.078125 C 76.734375 225.199219 77.328125 223.359375 77.945312 221.519531 L 78.101562 221.046875 C 79.035156 218.269531 79.984375 215.5 80.957031 212.738281 C 81.105469 212.308594 81.257812 211.882812 81.40625 211.457031 C 82.394531 208.609375 83.511719 205.859375 84.792969 203.132812 " fill-opacity="1" fill-rule="nonzero"></path>
  <path fill="#612af1" d="M 127.292969 55.710938 C 125.601562 58.347656 123.683594 60.804688 121.625 63.160156 C 121.109375 63.75 120.609375 64.355469 120.117188 64.964844 C 119.253906 66.027344 118.359375 67.058594 117.457031 68.089844 C 116.640625 69.027344 115.847656 69.984375 115.066406 70.949219 C 114.496094 71.640625 113.917969 72.316406 113.332031 72.992188 C 112.433594 74.039062 111.550781 75.09375 110.683594 76.164062 C 110.054688 76.929688 109.410156 77.683594 108.769531 78.441406 C 108.15625 79.164062 107.550781 79.894531 106.953125 80.632812 C 106.199219 81.558594 105.414062 82.449219 104.609375 83.332031 C 104.207031 83.777344 103.808594 84.226562 103.414062 84.679688 L 103.0625 85.078125 C 102.808594 85.371094 102.558594 85.664062 102.308594 85.960938 L 101.914062 86.425781 L 101.558594 86.847656 L 101.25 87.152344 L 100.835938 87.152344 C 100.5625 86.773438 100.5625 86.773438 100.25 86.234375 L 99.898438 85.628906 L 99.519531 84.964844 L 99.125 84.285156 C 98.121094 82.535156 97.152344 80.765625 96.199219 78.988281 C 95.382812 77.472656 94.539062 75.972656 93.679688 74.480469 C 92.683594 72.746094 91.714844 71 90.746094 69.25 C 90.039062 67.972656 89.324219 66.707031 88.589844 65.445312 C 87.226562 63.089844 85.921875 60.6875 84.792969 58.210938 L 84.792969 58 C 89.292969 57.496094 93.789062 57.195312 98.3125 56.976562 C 99.21875 56.933594 100.128906 56.886719 101.035156 56.84375 C 102.554688 56.765625 104.074219 56.691406 105.59375 56.617188 C 107.34375 56.53125 109.09375 56.445312 110.839844 56.359375 C 112.71875 56.265625 114.601562 56.171875 116.480469 56.082031 L 118.085938 56 C 118.925781 55.957031 119.769531 55.917969 120.613281 55.875 C 120.917969 55.863281 121.226562 55.847656 121.53125 55.832031 C 123.453125 55.734375 125.371094 55.695312 127.292969 55.710938 " fill-opacity="1" fill-rule="nonzero"></path>
  <path fill="#703def" d="M 66.460938 151.910156 L 67.085938 152.117188 C 67.359375 152.660156 67.582031 153.179688 67.800781 153.746094 L 68.015625 154.296875 C 69.011719 156.894531 69.855469 159.550781 70.726562 162.191406 C 71.402344 164.238281 72.09375 166.28125 72.789062 168.320312 L 72.984375 168.902344 C 73.6875 170.96875 74.402344 173.03125 75.148438 175.078125 L 75.714844 176.625 C 76.730469 179.402344 77.671875 182.191406 78.503906 185.03125 L 78.636719 185.484375 C 79.011719 186.777344 79.382812 188.054688 79.585938 189.390625 C 78.511719 189.078125 77.597656 188.605469 76.628906 188.0625 L 76.132812 187.785156 C 74.425781 186.820312 72.773438 185.769531 71.125 184.710938 C 70.300781 184.183594 69.472656 183.664062 68.648438 183.144531 L 67.160156 182.207031 C 66.671875 181.894531 66.183594 181.585938 65.691406 181.277344 C 64.699219 180.648438 63.703125 180.019531 62.710938 179.394531 L 62.21875 179.085938 C 59.816406 177.582031 57.390625 176.125 54.949219 174.683594 C 52.761719 173.390625 50.585938 172.085938 48.472656 170.671875 C 48.132812 170.445312 47.792969 170.222656 47.449219 170 C 45.960938 169.027344 44.539062 167.984375 43.125 166.902344 C 43.667969 166.335938 44.207031 165.871094 44.859375 165.4375 L 45.386719 165.085938 L 45.953125 164.714844 L 46.542969 164.324219 C 48.832031 162.816406 51.15625 161.363281 53.484375 159.914062 L 54.742188 159.132812 L 55.378906 158.734375 C 56.636719 157.949219 57.886719 157.144531 59.128906 156.328125 C 60.902344 155.15625 62.691406 154.019531 64.53125 152.949219 L 65.09375 152.621094 L 65.609375 152.328125 L 66.0625 152.066406 Z M 66.460938 151.910156 " fill-opacity="1" fill-rule="nonzero"></path>
  <path fill="#5641eb" d="M 358.125 164.820312 L 358.539062 164.820312 C 360.394531 168.800781 362.246094 172.78125 363.976562 176.820312 C 364.589844 178.257812 365.21875 179.683594 365.863281 181.105469 C 367.304688 184.28125 368.722656 187.453125 369.984375 190.703125 L 370.144531 191.105469 C 370.699219 192.539062 371.148438 193.925781 371.457031 195.429688 C 363.226562 194.519531 355.035156 193.445312 346.84375 192.21875 C 345.472656 192.011719 344.097656 191.808594 342.726562 191.605469 C 340.082031 191.21875 337.433594 190.824219 334.789062 190.429688 L 334.789062 189.804688 C 335.109375 189.414062 335.441406 189.035156 335.792969 188.675781 L 336.429688 187.996094 L 336.757812 187.648438 C 337.25 187.128906 337.734375 186.601562 338.214844 186.070312 C 339.121094 185.082031 340.03125 184.097656 340.941406 183.113281 C 341.628906 182.371094 342.3125 181.625 342.992188 180.878906 C 343.871094 179.917969 344.761719 178.964844 345.648438 178.015625 C 346.992188 176.582031 348.320312 175.140625 349.601562 173.648438 C 350.789062 172.265625 351.980469 170.925781 353.289062 169.652344 C 353.71875 169.222656 354.113281 168.78125 354.503906 168.320312 C 355.105469 167.613281 355.761719 167.015625 356.472656 166.417969 C 356.863281 166.078125 357.21875 165.722656 357.578125 165.351562 C 357.757812 165.175781 357.9375 165 358.125 164.820312 " fill-opacity="1" fill-rule="nonzero"></path>
  <path fill="#703eef" d="M 44.792969 117.554688 C 45.578125 118.304688 46.25 119.09375 46.890625 119.972656 L 47.1875 120.382812 C 48.988281 122.886719 50.554688 125.546875 52.132812 128.195312 C 53.386719 130.292969 54.71875 132.34375 56.046875 134.402344 C 61.515625 142.894531 61.515625 142.894531 63.75 146.914062 C 62.972656 147.800781 62.089844 148.375 61.089844 148.992188 C 60.351562 149.453125 59.625 149.929688 58.898438 150.40625 L 57.65625 151.222656 C 53.582031 153.90625 49.476562 156.542969 45.3125 159.085938 C 44.964844 159.300781 44.617188 159.515625 44.269531 159.730469 C 43.777344 160.03125 43.28125 160.332031 42.789062 160.628906 C 42.640625 160.71875 42.492188 160.808594 42.34375 160.902344 C 41.988281 161.113281 41.621094 161.304688 41.25 161.488281 L 40.625 161.28125 C 40.480469 150.9375 41.570312 140.683594 42.722656 130.414062 C 42.78125 129.875 42.839844 129.335938 42.898438 128.796875 C 43.8125 120.488281 43.8125 120.488281 44.792969 117.554688 " fill-opacity="1" fill-rule="nonzero"></path>
  <path fill="#703def" d="M 81.460938 233.949219 C 84.4375 235.085938 87.355469 236.324219 90.25 237.660156 C 92.761719 238.820312 95.285156 239.949219 97.832031 241.042969 C 99.878906 241.925781 101.921875 242.828125 103.960938 243.734375 C 106.148438 244.710938 108.339844 245.679688 110.539062 246.628906 C 115.621094 248.820312 120.652344 251.09375 125.625 253.523438 C 125.296875 254.332031 124.746094 254.878906 124.132812 255.484375 L 123.816406 255.804688 C 123.597656 256.023438 123.375 256.246094 123.152344 256.464844 C 122.8125 256.800781 122.472656 257.140625 122.136719 257.484375 L 121.492188 258.125 L 121.183594 258.433594 C 120.9375 258.679688 120.675781 258.914062 120.417969 259.144531 L 120 259.144531 L 119.792969 259.769531 C 118.972656 259.644531 118.351562 259.390625 117.625 258.996094 L 116.964844 258.644531 L 116.265625 258.257812 L 115.53125 257.863281 C 111.511719 255.667969 107.621094 253.261719 103.75 250.816406 L 103.101562 250.40625 C 100.097656 248.515625 97.15625 246.558594 94.257812 244.511719 C 93.820312 244.199219 93.378906 243.890625 92.933594 243.582031 C 89.484375 241.164062 86.222656 238.507812 83.066406 235.71875 C 82.710938 235.410156 82.347656 235.117188 81.980469 234.820312 L 81.460938 234.367188 Z M 57.710938 109.640625 C 59.566406 115.691406 60.925781 121.851562 62.285156 128.027344 L 62.582031 129.390625 C 62.742188 130.117188 62.902344 130.84375 63.0625 131.566406 C 63.148438 131.96875 63.238281 132.367188 63.324219 132.765625 C 63.609375 134.082031 63.839844 135.371094 63.960938 136.710938 C 63.308594 136.105469 62.855469 135.492188 62.394531 134.734375 L 61.984375 134.058594 L 61.769531 133.703125 C 61.398438 133.085938 61.023438 132.472656 60.648438 131.859375 L 60.421875 131.492188 C 59.828125 130.519531 59.21875 129.554688 58.59375 128.601562 C 57.476562 126.890625 56.382812 125.164062 55.292969 123.429688 C 55.03125 123.015625 54.769531 122.597656 54.503906 122.179688 C 54.082031 121.511719 53.664062 120.84375 53.25 120.171875 C 52.992188 119.757812 52.738281 119.34375 52.480469 118.933594 C 52.066406 118.273438 51.660156 117.613281 51.25 116.953125 C 51.085938 116.6875 50.921875 116.417969 50.753906 116.152344 C 50.519531 115.777344 50.289062 115.402344 50.058594 115.023438 L 49.644531 114.359375 L 49.375 113.804688 L 49.585938 113.179688 C 50.089844 112.898438 50.605469 112.636719 51.132812 112.398438 L 51.601562 112.179688 C 52.101562 111.945312 52.601562 111.71875 53.101562 111.488281 C 53.433594 111.332031 53.769531 111.175781 54.105469 111.019531 C 57.078125 109.640625 57.078125 109.640625 57.710938 109.640625 " fill-opacity="1" fill-rule="nonzero"></path>
  <path fill="#5b44eb" d="M 55.417969 89.652344 C 55.980469 90.492188 55.984375 91.207031 56.070312 92.203125 L 56.121094 92.816406 C 56.285156 94.980469 56.289062 97.148438 56.289062 99.320312 L 56.289062 99.863281 C 56.289062 100.378906 56.289062 100.898438 56.285156 101.414062 L 56.285156 101.882812 C 56.277344 102.886719 56.183594 103.855469 56.042969 104.851562 C 55.214844 105.195312 54.382812 105.539062 53.554688 105.886719 L 52.707031 106.234375 C 51.257812 106.839844 49.808594 107.4375 48.335938 107.976562 C 48.660156 106.011719 49.277344 104.167969 49.910156 102.289062 L 50.078125 101.785156 C 51.414062 97.816406 53.011719 94.085938 55.023438 90.410156 C 55.160156 90.160156 55.289062 89.90625 55.417969 89.652344 " fill-opacity="1" fill-rule="nonzero"></path>
</svg>
